<svg xmlns="http://www.w3.org/2000/svg" xmlns:xlink="http://www.w3.org/1999/xlink" width="800" zoomAndPan="magnify" viewBox="0 0 600 42" height="56" preserveAspectRatio="xMidYMid meet" version="1.0"><defs><clipPath id="17ae75c566"><path d="M 60.371094 33 L 78 33 L 78 37.652344 L 60.371094 37.652344 Z M 60.371094 33 " clip-rule="nonzero"/></clipPath><clipPath id="ed319a151d"><path d="M 531 33 L 548.253906 33 L 548.253906 37.652344 L 531 37.652344 Z M 531 33 " clip-rule="nonzero"/></clipPath><clipPath id="3b63b6eca0"><path d="M 302 3.21875 L 306 3.21875 L 306 11 L 302 11 Z M 302 3.21875 " clip-rule="nonzero"/></clipPath></defs><g clip-path="url(#17ae75c566)"><path fill="#000000" d="M 77.417969 35.257812 C 77.28125 35.226562 77.164062 35.207031 77.066406 35.179688 C 77.039062 35.179688 77.007812 35.167969 76.96875 35.160156 L 76.921875 35.160156 C 76.6875 35.089844 76.375 35.011719 76.070312 34.925781 C 75.535156 34.769531 75.046875 34.585938 74.597656 34.371094 C 74.101562 34.128906 73.699219 33.855469 73.40625 33.566406 L 73.222656 33.382812 C 73.007812 33.382812 72.792969 33.363281 72.578125 33.363281 C 72.121094 33.351562 71.652344 33.34375 71.183594 33.34375 C 70.714844 33.34375 70.253906 33.34375 69.796875 33.34375 C 69.339844 33.34375 68.878906 33.363281 68.441406 33.382812 C 68.332031 33.382812 68.214844 33.382812 68.109375 33.402344 L 67.921875 33.402344 C 67.921875 33.402344 67.84375 33.46875 67.804688 33.5 C 67.632812 33.625 67.425781 33.742188 67.222656 33.855469 C 67.007812 33.964844 66.792969 34.070312 66.558594 34.167969 C 66.097656 34.363281 65.601562 34.527344 65.09375 34.664062 C 64.078125 34.933594 63.054688 35.089844 62.1875 35.167969 C 61.453125 35.238281 60.839844 35.257812 60.371094 35.265625 C 60.839844 35.265625 61.464844 35.292969 62.1875 35.363281 C 63.054688 35.441406 64.089844 35.597656 65.09375 35.867188 C 65.601562 36.003906 66.097656 36.167969 66.558594 36.363281 C 66.792969 36.460938 67.007812 36.566406 67.222656 36.675781 C 67.425781 36.789062 67.632812 36.90625 67.804688 37.03125 C 67.84375 37.0625 67.882812 37.089844 67.921875 37.121094 L 68.109375 37.121094 L 68.441406 37.140625 C 68.890625 37.160156 69.339844 37.167969 69.796875 37.179688 C 69.914062 37.179688 70.03125 37.179688 70.136719 37.179688 L 71.183594 37.179688 C 71.652344 37.179688 72.109375 37.179688 72.566406 37.160156 C 72.78125 37.160156 72.996094 37.148438 73.210938 37.140625 L 73.398438 36.957031 C 73.691406 36.664062 74.089844 36.390625 74.589844 36.148438 C 75.027344 35.9375 75.523438 35.75 76.0625 35.585938 C 76.480469 35.460938 76.960938 35.34375 77.457031 35.246094 L 77.386719 35.246094 Z M 77.417969 35.257812 " fill-opacity="1" fill-rule="nonzero"/></g><g clip-path="url(#ed319a151d)"><path fill="#000000" d="M 546.441406 35.179688 C 545.570312 35.101562 544.539062 34.945312 543.53125 34.671875 C 543.023438 34.539062 542.527344 34.371094 542.070312 34.179688 C 541.835938 34.082031 541.621094 33.972656 541.40625 33.867188 C 541.199219 33.75 540.996094 33.632812 540.820312 33.507812 C 540.78125 33.480469 540.742188 33.449219 540.703125 33.421875 L 540.515625 33.421875 C 540.410156 33.410156 540.292969 33.402344 540.183594 33.402344 C 539.738281 33.382812 539.289062 33.371094 538.828125 33.363281 C 538.371094 33.363281 537.902344 33.351562 537.441406 33.363281 C 536.976562 33.363281 536.515625 33.363281 536.046875 33.382812 C 535.832031 33.382812 535.617188 33.390625 535.402344 33.402344 L 535.21875 33.585938 C 534.925781 33.875 534.527344 34.140625 534.027344 34.390625 C 533.589844 34.605469 533.089844 34.789062 532.554688 34.953125 C 532.253906 35.042969 531.941406 35.121094 531.707031 35.179688 L 531.65625 35.179688 C 531.65625 35.179688 531.597656 35.207031 531.558594 35.207031 C 531.460938 35.226562 531.34375 35.257812 531.207031 35.285156 L 531.140625 35.285156 C 531.648438 35.390625 532.117188 35.507812 532.535156 35.632812 C 533.070312 35.789062 533.570312 35.972656 534.007812 36.1875 C 534.507812 36.429688 534.917969 36.703125 535.199219 36.996094 L 535.382812 37.179688 C 535.597656 37.179688 535.8125 37.199219 536.027344 37.199219 C 536.488281 37.207031 536.957031 37.21875 537.414062 37.21875 L 538.457031 37.21875 C 538.574219 37.21875 538.691406 37.21875 538.800781 37.21875 C 539.257812 37.21875 539.707031 37.199219 540.15625 37.179688 L 540.488281 37.160156 L 540.671875 37.160156 C 540.671875 37.160156 540.75 37.089844 540.789062 37.0625 C 540.964844 36.9375 541.171875 36.820312 541.375 36.703125 C 541.589844 36.597656 541.804688 36.488281 542.039062 36.390625 C 542.496094 36.199219 542.996094 36.03125 543.503906 35.898438 C 544.519531 35.625 545.542969 35.46875 546.410156 35.390625 C 547.140625 35.324219 547.757812 35.304688 548.226562 35.292969 C 547.757812 35.292969 547.132812 35.265625 546.410156 35.199219 Z M 546.441406 35.179688 " fill-opacity="1" fill-rule="nonzero"/></g><path fill="#000000" d="M 527.910156 33.683594 C 527.03125 33.683594 526.308594 34.390625 526.308594 35.273438 C 526.308594 36.160156 527.023438 36.867188 527.910156 36.867188 C 528.796875 36.867188 529.511719 36.160156 529.511719 35.273438 C 529.511719 34.390625 528.796875 33.683594 527.910156 33.683594 Z M 527.910156 33.683594 " fill-opacity="1" fill-rule="nonzero"/><path fill="#000000" d="M 82.316406 35.265625 C 82.316406 35.476562 82.277344 35.679688 82.195312 35.875 C 82.113281 36.070312 81.996094 36.242188 81.847656 36.390625 C 81.699219 36.542969 81.523438 36.65625 81.328125 36.738281 C 81.132812 36.816406 80.929688 36.859375 80.714844 36.859375 C 80.503906 36.859375 80.300781 36.816406 80.105469 36.738281 C 79.90625 36.65625 79.734375 36.542969 79.585938 36.390625 C 79.433594 36.242188 79.320312 36.070312 79.238281 35.875 C 79.15625 35.679688 79.117188 35.476562 79.117188 35.265625 C 79.117188 35.054688 79.15625 34.851562 79.238281 34.65625 C 79.320312 34.460938 79.433594 34.289062 79.585938 34.140625 C 79.734375 33.988281 79.90625 33.875 80.105469 33.792969 C 80.300781 33.714844 80.503906 33.671875 80.714844 33.671875 C 80.929688 33.671875 81.132812 33.714844 81.328125 33.792969 C 81.523438 33.875 81.699219 33.988281 81.847656 34.140625 C 81.996094 34.289062 82.113281 34.460938 82.195312 34.65625 C 82.277344 34.851562 82.316406 35.054688 82.316406 35.265625 Z M 82.316406 35.265625 " fill-opacity="1" fill-rule="nonzero"/><path fill="#000000" d="M 524.054688 33.710938 C 523.410156 33.710938 522.855469 34.101562 522.621094 34.652344 L 517.859375 34.652344 C 517.636719 34.246094 517.195312 33.964844 516.699219 33.964844 C 516.199219 33.964844 515.761719 34.246094 515.539062 34.652344 L 93.089844 34.652344 C 92.863281 34.246094 92.425781 33.964844 91.925781 33.964844 C 91.429688 33.964844 90.992188 34.246094 90.765625 34.652344 L 86.003906 34.652344 C 85.761719 34.101562 85.214844 33.710938 84.570312 33.710938 C 83.703125 33.710938 83 34.410156 83 35.273438 C 83 36.140625 83.703125 36.839844 84.570312 36.839844 C 85.214844 36.839844 85.769531 36.449219 86.003906 35.898438 L 90.765625 35.898438 C 90.992188 36.304688 91.429688 36.585938 91.925781 36.585938 C 92.425781 36.585938 92.863281 36.304688 93.089844 35.898438 L 515.539062 35.898438 C 515.761719 36.304688 516.199219 36.585938 516.699219 36.585938 C 517.195312 36.585938 517.636719 36.304688 517.859375 35.898438 L 522.621094 35.898438 C 522.867188 36.449219 523.410156 36.839844 524.054688 36.839844 C 524.925781 36.839844 525.625 36.140625 525.625 35.273438 C 525.625 34.410156 524.925781 33.710938 524.054688 33.710938 Z M 524.054688 33.710938 " fill-opacity="1" fill-rule="nonzero"/><g clip-path="url(#3b63b6eca0)"><path fill="#000000" d="M 302.828125 7.878906 C 302.984375 8.527344 303.277344 9.160156 303.660156 9.722656 C 303.855469 10.003906 304.070312 10.265625 304.304688 10.519531 L 304.324219 10.539062 L 304.34375 10.519531 C 304.578125 10.277344 304.792969 10.003906 304.984375 9.722656 C 305.367188 9.160156 305.660156 8.539062 305.816406 7.878906 C 305.894531 7.546875 305.941406 7.21875 305.953125 6.886719 C 305.953125 6.558594 305.933594 6.21875 305.863281 5.898438 L 305.863281 5.847656 L 305.84375 5.800781 L 305.824219 5.710938 C 305.804688 5.65625 305.796875 5.585938 305.777344 5.527344 C 305.738281 5.410156 305.699219 5.285156 305.648438 5.167969 L 305.609375 5.082031 C 305.609375 5.082031 305.582031 5.023438 305.570312 4.992188 L 305.550781 4.957031 L 305.53125 4.917969 L 305.492188 4.828125 L 305.445312 4.742188 L 305.40625 4.664062 L 305.355469 4.585938 C 305.355469 4.585938 305.328125 4.539062 305.308594 4.519531 C 305.238281 4.421875 305.160156 4.324219 305.074219 4.238281 C 304.984375 4.148438 304.898438 4.050781 304.8125 3.972656 C 304.722656 3.898438 304.625 3.820312 304.539062 3.769531 C 304.488281 3.742188 304.449219 3.722656 304.410156 3.710938 L 304.363281 3.710938 L 304.363281 3.683594 L 304.34375 3.683594 C 304.34375 3.683594 304.3125 3.683594 304.273438 3.703125 C 304.234375 3.710938 304.195312 3.742188 304.148438 3.761719 C 304.058594 3.820312 303.960938 3.886719 303.875 3.964844 C 303.785156 4.042969 303.6875 4.128906 303.609375 4.226562 C 303.523438 4.3125 303.445312 4.410156 303.375 4.507812 C 303.355469 4.527344 303.347656 4.558594 303.328125 4.578125 L 303.277344 4.652344 L 303.238281 4.730469 L 303.191406 4.820312 L 303.152344 4.90625 L 303.113281 4.984375 C 303.113281 4.984375 303.082031 5.042969 303.074219 5.070312 L 303.035156 5.160156 C 302.984375 5.277344 302.945312 5.390625 302.90625 5.519531 C 302.886719 5.578125 302.867188 5.636719 302.859375 5.703125 L 302.839844 5.789062 L 302.839844 5.839844 L 302.820312 5.886719 C 302.75 6.207031 302.722656 6.546875 302.730469 6.878906 C 302.730469 7.207031 302.789062 7.546875 302.867188 7.867188 Z M 302.828125 7.878906 " fill-opacity="1" fill-rule="nonzero"/></g><path fill="#000000" d="M 302.710938 15.492188 C 303.289062 16.046875 303.824219 16.648438 304.3125 17.28125 C 304.800781 16.648438 305.335938 16.046875 305.914062 15.492188 C 305.882812 15.472656 305.855469 15.445312 305.824219 15.425781 L 305.667969 15.289062 C 305.5625 15.199219 305.453125 15.113281 305.335938 15.015625 C 305.230469 14.929688 305.113281 14.839844 305.003906 14.753906 L 304.839844 14.628906 C 304.78125 14.589844 304.722656 14.539062 304.664062 14.5 C 304.546875 14.414062 304.429688 14.335938 304.3125 14.257812 C 304.195312 14.335938 304.078125 14.425781 303.960938 14.5 C 303.902344 14.539062 303.84375 14.578125 303.785156 14.628906 L 303.621094 14.753906 C 303.503906 14.839844 303.394531 14.929688 303.289062 15.015625 C 303.179688 15.105469 303.0625 15.191406 302.957031 15.289062 L 302.800781 15.425781 C 302.800781 15.425781 302.742188 15.472656 302.710938 15.492188 Z M 302.710938 15.492188 " fill-opacity="1" fill-rule="nonzero"/><path fill="#000000" d="M 303.132812 12.667969 L 303.230469 12.714844 C 303.355469 12.78125 303.492188 12.851562 303.621094 12.929688 C 303.855469 13.0625 304.089844 13.199219 304.3125 13.347656 C 304.539062 13.199219 304.773438 13.0625 305.003906 12.929688 C 305.132812 12.851562 305.269531 12.78125 305.394531 12.714844 L 305.492188 12.667969 L 305.589844 12.617188 L 305.785156 12.519531 L 305.570312 12.414062 C 305.230469 12.238281 304.898438 12.035156 304.597656 11.800781 C 304.5 11.722656 304.402344 11.65625 304.3125 11.578125 C 304.214844 11.65625 304.128906 11.734375 304.03125 11.800781 C 303.726562 12.035156 303.394531 12.238281 303.054688 12.414062 L 302.839844 12.519531 L 303.035156 12.617188 Z M 303.132812 12.667969 " fill-opacity="1" fill-rule="nonzero"/><path fill="#000000" d="M 258.480469 30.128906 C 258.480469 30.128906 258.53125 30.078125 258.558594 30.058594 L 258.648438 29.980469 C 258.902344 29.769531 259.28125 29.46875 259.828125 29.15625 C 260.363281 28.847656 261.058594 28.515625 261.886719 28.222656 C 262.304688 28.078125 262.753906 27.933594 263.234375 27.796875 C 263.722656 27.660156 264.226562 27.535156 264.765625 27.429688 C 265.300781 27.320312 265.878906 27.234375 266.472656 27.175781 C 266.621094 27.15625 266.773438 27.148438 266.921875 27.136719 C 267 27.136719 267.078125 27.128906 267.15625 27.117188 C 267.234375 27.117188 267.3125 27.109375 267.390625 27.097656 L 267.625 27.097656 L 267.742188 27.078125 L 268.101562 27.078125 L 268.347656 27.058594 C 268.992188 27.050781 269.652344 27.078125 270.347656 27.128906 C 271.03125 27.175781 271.730469 27.261719 272.453125 27.378906 C 273.167969 27.496094 273.898438 27.640625 274.640625 27.816406 C 275.382812 27.992188 276.132812 28.195312 276.894531 28.429688 C 277.65625 28.660156 278.417969 28.90625 279.1875 29.195312 C 279.957031 29.476562 280.738281 29.789062 281.519531 30.117188 C 282.308594 30.449219 283.089844 30.769531 283.871094 31.089844 C 284.261719 31.246094 284.652344 31.398438 285.042969 31.554688 L 285.335938 31.671875 C 285.433594 31.710938 285.539062 31.75 285.636719 31.777344 C 285.832031 31.855469 286.035156 31.925781 286.242188 31.992188 C 286.289062 32.011719 286.339844 32.023438 286.386719 32.042969 L 286.535156 32.089844 L 286.679688 32.136719 L 286.835938 32.175781 C 287.042969 32.234375 287.238281 32.292969 287.441406 32.34375 C 287.539062 32.371094 287.648438 32.390625 287.746094 32.421875 L 288.046875 32.488281 C 288.097656 32.496094 288.144531 32.507812 288.195312 32.515625 L 288.339844 32.546875 L 288.640625 32.605469 C 289.441406 32.75 290.234375 32.847656 291.011719 32.894531 L 291.304688 32.894531 C 291.402344 32.914062 291.5 32.914062 291.597656 32.914062 L 291.882812 32.914062 C 291.980469 32.914062 292.078125 32.914062 292.164062 32.914062 C 292.351562 32.914062 292.546875 32.914062 292.730469 32.894531 L 293.011719 32.894531 C 293.109375 32.875 293.199219 32.867188 293.296875 32.855469 C 293.480469 32.847656 293.667969 32.816406 293.84375 32.800781 C 293.929688 32.800781 294.027344 32.769531 294.117188 32.761719 C 294.203125 32.75 294.292969 32.730469 294.378906 32.722656 L 294.644531 32.671875 L 294.769531 32.652344 L 294.898438 32.625 L 295.152344 32.566406 C 295.152344 32.566406 295.238281 32.546875 295.277344 32.535156 L 295.402344 32.507812 C 296.078125 32.34375 296.710938 32.128906 297.308594 31.886719 C 297.902344 31.644531 298.449219 31.363281 298.957031 31.070312 C 299.464844 30.777344 299.914062 30.457031 300.332031 30.136719 C 300.4375 30.058594 300.535156 29.980469 300.632812 29.894531 L 300.78125 29.777344 L 300.847656 29.71875 C 300.847656 29.71875 300.898438 29.679688 300.917969 29.660156 C 301.003906 29.585938 301.101562 29.496094 301.191406 29.417969 L 301.445312 29.175781 C 301.445312 29.175781 301.523438 29.097656 301.5625 29.058594 L 301.679688 28.941406 C 301.679688 28.941406 301.757812 28.867188 301.796875 28.828125 L 301.902344 28.710938 L 302.011719 28.59375 L 302.058594 28.535156 L 302.109375 28.476562 L 302.304688 28.242188 C 302.304688 28.242188 302.363281 28.167969 302.390625 28.128906 L 302.480469 28.019531 C 302.539062 27.941406 302.59375 27.875 302.644531 27.808594 C 302.75 27.660156 302.847656 27.523438 302.9375 27.398438 L 303.0625 27.203125 C 303.101562 27.148438 303.140625 27.078125 303.179688 27.019531 L 303.289062 26.84375 C 303.328125 26.789062 303.355469 26.730469 303.386719 26.679688 L 303.472656 26.523438 L 303.550781 26.390625 L 303.679688 26.136719 C 303.71875 26.058594 303.746094 26 303.777344 25.941406 L 303.84375 25.796875 L 303.902344 25.679688 L 303.835938 25.785156 L 303.746094 25.921875 C 303.707031 25.972656 303.667969 26.039062 303.621094 26.105469 L 303.453125 26.332031 L 303.40625 26.398438 L 303.355469 26.464844 L 303.25 26.601562 C 303.25 26.601562 303.171875 26.699219 303.132812 26.75 L 303.003906 26.902344 C 302.957031 26.953125 302.917969 27.011719 302.867188 27.070312 L 302.722656 27.242188 C 302.625 27.359375 302.507812 27.476562 302.390625 27.601562 C 302.332031 27.671875 302.265625 27.730469 302.207031 27.789062 L 302.109375 27.882812 C 302.109375 27.882812 302.039062 27.953125 302.011719 27.980469 L 301.796875 28.175781 L 301.738281 28.222656 L 301.679688 28.273438 L 301.445312 28.46875 C 301.445312 28.46875 301.367188 28.535156 301.328125 28.566406 L 301.199219 28.660156 C 301.199219 28.660156 301.113281 28.730469 301.074219 28.769531 C 300.378906 29.3125 299.542969 29.847656 298.554688 30.3125 C 298.058594 30.546875 297.53125 30.75 296.964844 30.925781 C 296.398438 31.097656 295.804688 31.246094 295.179688 31.351562 L 295.0625 31.371094 C 295.0625 31.371094 294.984375 31.382812 294.945312 31.390625 L 294.710938 31.417969 L 294.59375 31.4375 L 294.476562 31.4375 L 294.234375 31.476562 C 294.15625 31.476562 294.066406 31.488281 293.988281 31.496094 C 293.910156 31.496094 293.824219 31.507812 293.746094 31.515625 C 293.578125 31.515625 293.414062 31.535156 293.246094 31.535156 C 293.160156 31.535156 293.082031 31.535156 292.992188 31.535156 L 292.742188 31.535156 C 292.566406 31.535156 292.398438 31.527344 292.222656 31.515625 C 292.136719 31.515625 292.046875 31.515625 291.960938 31.496094 L 291.695312 31.476562 C 291.609375 31.476562 291.519531 31.457031 291.433594 31.457031 L 291.296875 31.457031 L 291.226562 31.4375 L 291.160156 31.4375 C 290.449219 31.351562 289.726562 31.234375 288.992188 31.058594 L 288.71875 30.992188 L 288.582031 30.964844 C 288.582031 30.964844 288.496094 30.933594 288.445312 30.925781 L 288.171875 30.847656 C 288.085938 30.816406 287.988281 30.789062 287.902344 30.769531 C 287.714844 30.71875 287.539062 30.652344 287.355469 30.59375 L 287.285156 30.574219 L 287.21875 30.554688 L 287.082031 30.507812 L 286.945312 30.457031 C 286.945312 30.457031 286.855469 30.429688 286.808594 30.410156 C 286.621094 30.339844 286.445312 30.273438 286.261719 30.207031 C 286.171875 30.167969 286.074219 30.136719 285.988281 30.097656 L 285.707031 29.980469 C 285.324219 29.828125 284.945312 29.660156 284.5625 29.507812 C 283.792969 29.175781 283.011719 28.847656 282.210938 28.515625 C 281.410156 28.1875 280.601562 27.875 279.800781 27.582031 C 278.992188 27.292969 278.183594 27.050781 277.382812 26.835938 C 276.582031 26.621094 275.78125 26.4375 275 26.28125 C 274.210938 26.136719 273.441406 26.019531 272.667969 25.941406 C 271.90625 25.863281 271.15625 25.816406 270.433594 25.816406 C 269.703125 25.816406 269 25.835938 268.316406 25.894531 L 268.0625 25.914062 L 267.808594 25.941406 L 267.683594 25.941406 L 267.554688 25.972656 L 267.3125 26 C 267.234375 26.011719 267.144531 26.019531 267.066406 26.039062 C 266.988281 26.050781 266.910156 26.058594 266.824219 26.078125 C 266.667969 26.105469 266.511719 26.125 266.355469 26.164062 C 265.730469 26.28125 265.144531 26.429688 264.589844 26.59375 C 264.035156 26.757812 263.515625 26.941406 263.039062 27.136719 C 262.558594 27.332031 262.109375 27.523438 261.703125 27.730469 C 260.882812 28.128906 260.21875 28.554688 259.699219 28.941406 C 259.195312 29.332031 258.84375 29.691406 258.628906 29.945312 L 258.550781 30.03125 C 258.550781 30.03125 258.5 30.089844 258.480469 30.109375 C 258.441406 30.15625 258.402344 30.195312 258.382812 30.234375 L 258.304688 30.339844 L 258.394531 30.253906 C 258.394531 30.253906 258.460938 30.1875 258.511719 30.148438 Z M 258.480469 30.128906 " fill-opacity="1" fill-rule="nonzero"/><path fill="#000000" d="M 274.980469 22 C 275.03125 22.144531 275.089844 22.300781 275.167969 22.4375 C 275.246094 22.582031 275.332031 22.71875 275.429688 22.84375 C 275.527344 22.96875 275.636719 23.097656 275.761719 23.214844 C 276.007812 23.4375 276.289062 23.621094 276.589844 23.757812 C 276.894531 23.894531 277.226562 23.972656 277.558594 23.980469 C 277.722656 23.988281 277.890625 23.980469 278.054688 23.960938 C 278.074219 23.960938 278.09375 23.960938 278.113281 23.960938 L 278.171875 23.960938 C 278.171875 23.960938 278.25 23.941406 278.289062 23.933594 C 278.328125 23.933594 278.367188 23.914062 278.417969 23.902344 L 278.476562 23.882812 C 278.476562 23.882812 278.515625 23.875 278.535156 23.863281 C 278.855469 23.757812 279.136719 23.59375 279.371094 23.378906 C 279.605469 23.164062 279.78125 22.914062 279.910156 22.640625 C 280.027344 22.367188 280.09375 22.085938 280.09375 21.824219 C 280.09375 21.6875 280.09375 21.5625 280.074219 21.4375 C 280.074219 21.40625 280.066406 21.378906 280.054688 21.339844 C 280.054688 21.308594 280.046875 21.28125 280.035156 21.242188 C 280.035156 21.210938 280.015625 21.183594 280.007812 21.15625 C 280.007812 21.125 279.988281 21.097656 279.976562 21.066406 C 279.890625 20.832031 279.761719 20.640625 279.617188 20.492188 C 279.46875 20.339844 279.304688 20.230469 279.15625 20.152344 C 279 20.078125 278.855469 20.039062 278.71875 20.007812 C 278.582031 19.988281 278.476562 19.980469 278.378906 19.988281 C 278.328125 19.988281 278.289062 19.988281 278.25 20 C 278.210938 20 278.183594 20 278.164062 20.007812 L 278.09375 20.027344 L 278.164062 20.027344 C 278.164062 20.027344 278.210938 20.027344 278.25 20.027344 C 278.289062 20.027344 278.328125 20.027344 278.367188 20.039062 C 278.457031 20.046875 278.5625 20.066406 278.679688 20.113281 C 278.796875 20.152344 278.921875 20.222656 279.050781 20.308594 C 279.175781 20.398438 279.292969 20.511719 279.390625 20.667969 C 279.488281 20.816406 279.566406 20.988281 279.605469 21.171875 C 279.644531 21.359375 279.644531 21.570312 279.605469 21.777344 C 279.566406 21.980469 279.488281 22.183594 279.371094 22.367188 C 279.253906 22.554688 279.097656 22.71875 278.921875 22.835938 C 278.738281 22.960938 278.535156 23.046875 278.320312 23.085938 L 278.242188 23.085938 C 278.242188 23.085938 278.183594 23.105469 278.164062 23.105469 C 278.132812 23.105469 278.105469 23.105469 278.074219 23.105469 L 278.035156 23.105469 C 278.035156 23.105469 278.007812 23.105469 277.996094 23.105469 C 277.878906 23.105469 277.773438 23.105469 277.65625 23.078125 C 277.429688 23.039062 277.214844 22.960938 277.03125 22.855469 C 276.835938 22.746094 276.667969 22.609375 276.523438 22.457031 C 276.453125 22.378906 276.386719 22.289062 276.335938 22.203125 C 276.277344 22.117188 276.230469 22.027344 276.191406 21.941406 C 276.152344 21.855469 276.125 21.757812 276.09375 21.660156 C 276.074219 21.5625 276.054688 21.476562 276.046875 21.378906 C 276.027344 21.183594 276.027344 20.988281 276.046875 20.804688 C 276.046875 20.71875 276.066406 20.621094 276.085938 20.53125 C 276.085938 20.511719 276.09375 20.484375 276.105469 20.464844 C 276.105469 20.445312 276.105469 20.417969 276.125 20.398438 C 276.132812 20.347656 276.152344 20.300781 276.164062 20.25 C 276.164062 20.230469 276.183594 20.203125 276.183594 20.183594 L 276.210938 20.113281 L 276.210938 20.078125 L 276.238281 20.039062 L 276.269531 19.96875 L 276.296875 19.902344 L 276.335938 19.824219 L 276.375 19.757812 L 276.414062 19.6875 L 276.433594 19.648438 L 276.453125 19.621094 L 276.503906 19.550781 L 276.550781 19.484375 L 276.570312 19.453125 L 276.601562 19.425781 L 276.648438 19.359375 L 276.707031 19.300781 C 276.707031 19.300781 276.746094 19.261719 276.765625 19.242188 C 276.785156 19.222656 276.804688 19.203125 276.824219 19.183594 C 276.863281 19.144531 276.902344 19.105469 276.953125 19.066406 C 276.992188 19.027344 277.039062 19 277.089844 18.960938 C 277.109375 18.941406 277.136719 18.929688 277.15625 18.910156 L 277.195312 18.882812 L 277.234375 18.863281 L 277.304688 18.8125 L 277.382812 18.773438 C 277.382812 18.773438 277.429688 18.746094 277.460938 18.734375 C 277.488281 18.726562 277.507812 18.707031 277.539062 18.699219 C 277.585938 18.679688 277.644531 18.648438 277.703125 18.628906 C 277.761719 18.609375 277.8125 18.589844 277.871094 18.570312 C 277.898438 18.5625 277.929688 18.550781 277.957031 18.542969 C 277.988281 18.542969 278.015625 18.523438 278.046875 18.523438 L 278.132812 18.503906 C 278.132812 18.503906 278.191406 18.492188 278.222656 18.484375 L 278.308594 18.464844 L 278.398438 18.464844 C 278.398438 18.464844 278.457031 18.445312 278.484375 18.445312 L 278.570312 18.445312 C 278.628906 18.433594 278.699219 18.433594 278.757812 18.425781 C 279 18.425781 279.253906 18.433594 279.488281 18.484375 C 279.734375 18.53125 279.957031 18.601562 280.183594 18.6875 C 280.621094 18.871094 281 19.132812 281.304688 19.414062 C 281.34375 19.453125 281.382812 19.484375 281.410156 19.523438 L 281.507812 19.628906 L 281.605469 19.746094 L 281.625 19.773438 L 281.644531 19.804688 L 281.761719 19.980469 C 281.761719 19.980469 281.8125 20.058594 281.839844 20.085938 L 281.910156 20.191406 L 281.929688 20.222656 L 281.949219 20.25 L 281.976562 20.300781 C 282.035156 20.398438 282.085938 20.503906 282.132812 20.609375 C 282.203125 20.777344 282.230469 20.960938 282.269531 21.136719 C 282.308594 21.320312 282.359375 21.496094 282.40625 21.679688 C 282.515625 22.058594 282.640625 22.425781 282.789062 22.796875 C 282.796875 22.835938 282.816406 22.863281 282.828125 22.902344 C 283.109375 23.601562 283.480469 24.3125 283.9375 25 C 284.398438 25.691406 284.953125 26.371094 285.609375 26.992188 C 285.929688 27.300781 286.28125 27.601562 286.652344 27.875 C 287.023438 28.15625 287.414062 28.417969 287.824219 28.660156 C 288.640625 29.148438 289.539062 29.535156 290.476562 29.828125 L 290.652344 29.875 C 290.710938 29.894531 290.769531 29.914062 290.828125 29.925781 L 291.003906 29.972656 L 291.089844 29.992188 L 291.179688 30.011719 C 291.421875 30.070312 291.675781 30.117188 291.921875 30.15625 C 292.417969 30.234375 292.9375 30.273438 293.441406 30.285156 C 294.46875 30.285156 295.5 30.128906 296.476562 29.828125 C 297.453125 29.515625 298.390625 29.070312 299.21875 28.488281 C 300.050781 27.914062 300.789062 27.222656 301.394531 26.457031 C 302.011719 25.691406 302.488281 24.855469 302.839844 24 L 302.90625 23.835938 L 302.964844 23.667969 L 302.996094 23.59375 L 303.023438 23.515625 L 303.082031 23.347656 C 303.152344 23.136719 303.21875 22.921875 303.269531 22.699219 C 303.277344 22.640625 303.296875 22.589844 303.308594 22.535156 L 303.347656 22.367188 C 303.347656 22.367188 303.355469 22.320312 303.367188 22.289062 L 303.386719 22.203125 L 303.414062 22.039062 L 303.445312 21.871094 L 303.484375 21.542969 C 303.484375 21.484375 303.503906 21.4375 303.503906 21.378906 L 303.53125 21.046875 C 303.53125 21.046875 303.53125 20.988281 303.53125 20.960938 L 303.53125 20.027344 L 303.511719 19.851562 C 303.511719 19.792969 303.511719 19.738281 303.492188 19.679688 L 303.445312 19.328125 C 303.425781 19.210938 303.40625 19.09375 303.386719 18.980469 C 303.386719 18.949219 303.375 18.921875 303.367188 18.890625 L 303.347656 18.804688 L 303.308594 18.628906 C 303.199219 18.164062 303.042969 17.707031 302.847656 17.261719 L 302.769531 17.09375 L 302.730469 17.007812 C 302.730469 17.007812 302.703125 16.949219 302.691406 16.921875 L 302.527344 16.589844 C 302.46875 16.484375 302.402344 16.375 302.34375 16.269531 L 302.324219 16.230469 L 302.292969 16.191406 L 302.246094 16.113281 L 302.148438 15.957031 C 301.589844 15.125 300.867188 14.375 300.019531 13.773438 C 299.171875 13.171875 298.203125 12.722656 297.179688 12.480469 C 297.121094 12.460938 297.054688 12.453125 296.984375 12.441406 L 296.691406 12.382812 C 296.691406 12.382812 296.625 12.375 296.59375 12.363281 L 296.390625 12.335938 C 296.320312 12.328125 296.253906 12.316406 296.183594 12.316406 L 295.980469 12.296875 L 295.773438 12.296875 L 295.675781 12.277344 L 295.578125 12.277344 C 295.042969 12.269531 294.496094 12.316406 293.96875 12.433594 C 293.441406 12.550781 292.933594 12.734375 292.457031 12.96875 L 292.410156 12.988281 C 292.410156 12.988281 292.378906 13.007812 292.359375 13.007812 L 292.273438 13.054688 C 292.214844 13.082031 292.15625 13.113281 292.097656 13.152344 L 291.929688 13.25 L 291.84375 13.296875 C 291.84375 13.296875 291.785156 13.335938 291.765625 13.355469 L 291.597656 13.460938 C 291.597656 13.460938 291.539062 13.5 291.519531 13.519531 L 291.363281 13.636719 C 291.363281 13.636719 291.316406 13.675781 291.285156 13.695312 L 291.128906 13.820312 C 290.730469 14.152344 290.371094 14.53125 290.058594 14.9375 C 289.746094 15.347656 289.492188 15.785156 289.285156 16.25 C 289.082031 16.707031 288.945312 17.183594 288.847656 17.65625 L 288.828125 17.746094 C 288.828125 17.746094 288.828125 17.804688 288.816406 17.832031 L 288.789062 18.015625 C 288.789062 18.074219 288.777344 18.144531 288.769531 18.203125 L 288.769531 18.289062 C 288.769531 18.289062 288.757812 18.347656 288.757812 18.375 L 288.757812 18.921875 C 288.757812 18.980469 288.757812 19.039062 288.769531 19.105469 C 288.808594 19.582031 288.914062 20.046875 289.082031 20.472656 C 289.238281 20.910156 289.460938 21.308594 289.707031 21.667969 C 289.832031 21.84375 289.96875 22.019531 290.117188 22.175781 L 290.175781 22.230469 L 290.203125 22.261719 L 290.234375 22.289062 L 290.351562 22.40625 C 290.351562 22.40625 290.429688 22.476562 290.46875 22.515625 C 290.503906 22.554688 290.542969 22.582031 290.582031 22.621094 C 290.90625 22.894531 291.246094 23.117188 291.597656 23.289062 C 291.949219 23.464844 292.3125 23.59375 292.671875 23.679688 L 292.808594 23.707031 L 292.945312 23.738281 C 292.945312 23.738281 293.03125 23.757812 293.082031 23.765625 L 293.21875 23.785156 C 293.21875 23.785156 293.265625 23.785156 293.285156 23.785156 L 293.355469 23.785156 L 293.492188 23.804688 L 293.6875 23.804688 C 293.6875 23.804688 293.726562 23.804688 293.753906 23.804688 C 294.105469 23.804688 294.4375 23.757812 294.742188 23.679688 C 295.054688 23.601562 295.335938 23.484375 295.589844 23.359375 C 295.84375 23.222656 296.066406 23.078125 296.261719 22.914062 C 296.457031 22.746094 296.632812 22.582031 296.769531 22.40625 C 296.917969 22.242188 297.035156 22.066406 297.132812 21.902344 C 297.230469 21.738281 297.308594 21.582031 297.367188 21.445312 L 297.40625 21.339844 L 297.425781 21.289062 C 297.425781 21.289062 297.433594 21.261719 297.445312 21.242188 L 297.472656 21.144531 L 297.492188 21.097656 L 297.492188 21.058594 C 297.523438 21 297.542969 20.949219 297.550781 20.902344 L 297.582031 20.777344 C 297.582031 20.777344 297.582031 20.738281 297.589844 20.71875 L 297.589844 20.667969 L 297.609375 20.589844 L 297.582031 20.660156 L 297.582031 20.707031 C 297.582031 20.707031 297.550781 20.746094 297.550781 20.757812 L 297.503906 20.882812 C 297.503906 20.882812 297.464844 20.980469 297.445312 21.027344 L 297.40625 21.105469 L 297.367188 21.191406 C 297.367188 21.191406 297.355469 21.222656 297.347656 21.242188 L 297.316406 21.289062 L 297.269531 21.386719 C 297.191406 21.515625 297.113281 21.660156 296.996094 21.804688 C 296.886719 21.949219 296.761719 22.097656 296.605469 22.242188 C 296.449219 22.386719 296.28125 22.535156 296.078125 22.660156 C 295.882812 22.785156 295.65625 22.914062 295.414062 23.007812 C 295.171875 23.105469 294.90625 23.175781 294.632812 23.222656 C 294.359375 23.273438 294.058594 23.273438 293.765625 23.253906 C 293.460938 23.222656 293.167969 23.15625 292.859375 23.046875 C 292.554688 22.941406 292.253906 22.804688 291.96875 22.621094 C 291.6875 22.4375 291.414062 22.222656 291.167969 21.980469 C 291.140625 21.949219 291.109375 21.910156 291.082031 21.882812 C 291.050781 21.855469 291.023438 21.816406 290.992188 21.785156 L 290.90625 21.6875 L 290.886719 21.660156 L 290.867188 21.628906 L 290.828125 21.582031 C 290.71875 21.445312 290.621094 21.289062 290.535156 21.136719 C 290.175781 20.511719 289.96875 19.785156 289.96875 19.039062 C 289.96875 18.988281 289.96875 18.941406 289.96875 18.902344 L 289.96875 18.765625 L 290.007812 18.492188 C 290.007812 18.492188 290.007812 18.445312 290.007812 18.425781 L 290.007812 18.355469 C 290.007812 18.355469 290.039062 18.261719 290.046875 18.222656 L 290.078125 18.085938 C 290.078125 18.085938 290.085938 18.035156 290.097656 18.015625 L 290.117188 17.949219 C 290.222656 17.570312 290.371094 17.210938 290.554688 16.863281 C 290.738281 16.511719 290.972656 16.191406 291.238281 15.890625 C 291.5 15.597656 291.792969 15.328125 292.125 15.09375 L 292.253906 15.007812 C 292.253906 15.007812 292.292969 14.976562 292.3125 14.96875 L 292.429688 14.890625 C 292.429688 14.890625 292.46875 14.859375 292.496094 14.851562 L 292.625 14.785156 C 292.625 14.785156 292.664062 14.753906 292.691406 14.746094 L 292.761719 14.714844 L 292.898438 14.648438 C 292.898438 14.648438 292.984375 14.609375 293.03125 14.589844 L 293.101562 14.558594 L 293.128906 14.539062 L 293.167969 14.539062 C 293.539062 14.386719 293.921875 14.277344 294.3125 14.210938 C 294.703125 14.152344 295.09375 14.140625 295.480469 14.171875 L 295.550781 14.171875 L 295.617188 14.191406 L 295.765625 14.210938 L 295.910156 14.238281 C 295.910156 14.238281 296.007812 14.25 296.058594 14.269531 L 296.203125 14.296875 C 296.203125 14.296875 296.253906 14.308594 296.273438 14.316406 L 296.339844 14.335938 L 296.488281 14.375 C 296.488281 14.375 296.585938 14.40625 296.632812 14.414062 C 297.40625 14.648438 298.105469 15.027344 298.710938 15.503906 C 299.316406 15.976562 299.824219 16.5625 300.214844 17.191406 L 300.28125 17.308594 L 300.320312 17.367188 L 300.339844 17.394531 L 300.359375 17.425781 L 300.488281 17.667969 L 300.605469 17.910156 C 300.605469 17.910156 300.625 17.949219 300.632812 17.96875 L 300.664062 18.027344 L 300.710938 18.152344 C 300.839844 18.484375 300.945312 18.824219 301.015625 19.164062 L 301.042969 19.289062 L 301.042969 19.347656 C 301.042969 19.347656 301.0625 19.386719 301.0625 19.414062 C 301.074219 19.503906 301.09375 19.582031 301.101562 19.667969 L 301.132812 19.921875 C 301.132812 19.921875 301.132812 20.007812 301.132812 20.046875 L 301.132812 20.300781 L 301.152344 20.425781 L 301.152344 20.851562 C 301.152344 20.851562 301.152344 20.890625 301.140625 20.910156 L 301.121094 21.15625 C 301.121094 21.15625 301.121094 21.230469 301.113281 21.269531 L 301.035156 21.738281 L 301.035156 21.796875 C 301.035156 21.796875 301.015625 21.835938 301.015625 21.855469 L 300.984375 21.980469 C 300.984375 21.980469 300.964844 22.066406 300.957031 22.105469 C 300.917969 22.269531 300.867188 22.445312 300.820312 22.609375 L 300.78125 22.738281 L 300.742188 22.855469 L 300.691406 22.980469 L 300.644531 23.105469 C 300.390625 23.777344 300.039062 24.4375 299.582031 25.046875 C 299.132812 25.660156 298.574219 26.234375 297.941406 26.71875 C 297.308594 27.203125 296.585938 27.613281 295.8125 27.902344 C 295.042969 28.195312 294.214844 28.378906 293.375 28.4375 C 292.953125 28.46875 292.535156 28.457031 292.117188 28.429688 C 291.902344 28.410156 291.695312 28.390625 291.492188 28.351562 L 291.414062 28.351562 L 291.335938 28.320312 L 291.179688 28.292969 C 291.128906 28.292969 291.070312 28.273438 291.023438 28.261719 L 290.867188 28.234375 C 290.027344 28.050781 289.21875 27.769531 288.464844 27.398438 C 288.085938 27.214844 287.726562 27.011719 287.375 26.789062 C 287.023438 26.5625 286.691406 26.320312 286.378906 26.070312 C 285.742188 25.5625 285.1875 24.992188 284.699219 24.398438 C 284.210938 23.804688 283.8125 23.175781 283.488281 22.554688 C 283.160156 21.929688 282.90625 21.300781 282.71875 20.707031 C 282.621094 20.40625 282.542969 20.113281 282.484375 19.832031 C 282.417969 19.550781 282.367188 19.269531 282.328125 19.007812 C 282.25 18.472656 282.210938 17.988281 282.203125 17.5625 C 282.203125 17.132812 282.203125 16.765625 282.230469 16.464844 C 282.230469 16.425781 282.230469 16.386719 282.230469 16.355469 L 282.230469 16.25 C 282.25 16.183594 282.25 16.125 282.261719 16.066406 L 282.28125 15.910156 C 282.28125 15.863281 282.289062 15.8125 282.300781 15.773438 L 282.328125 15.53125 L 282.269531 15.765625 C 282.269531 15.765625 282.25 15.84375 282.242188 15.890625 L 282.203125 16.046875 C 282.191406 16.105469 282.171875 16.164062 282.164062 16.230469 L 282.144531 16.335938 C 282.144531 16.335938 282.132812 16.40625 282.125 16.445312 C 282.066406 16.746094 282.015625 17.113281 281.976562 17.542969 C 281.9375 17.980469 281.929688 18.472656 281.949219 19.027344 C 281.957031 19.300781 281.988281 19.589844 282.027344 19.890625 L 282.027344 19.949219 C 282.027344 19.949219 281.988281 19.863281 281.96875 19.824219 L 281.9375 19.757812 L 281.898438 19.6875 L 281.859375 19.621094 L 281.839844 19.582031 L 281.820312 19.550781 C 281.820312 19.550781 281.773438 19.464844 281.742188 19.414062 L 281.65625 19.28125 C 281.65625 19.28125 281.585938 19.191406 281.558594 19.144531 C 281.421875 18.960938 281.253906 18.773438 281.070312 18.609375 C 280.886719 18.433594 280.671875 18.28125 280.425781 18.132812 C 280.191406 17.988281 279.929688 17.871094 279.65625 17.773438 C 279.382812 17.675781 279.078125 17.621094 278.777344 17.582031 C 278.699219 17.582031 278.621094 17.5625 278.550781 17.5625 L 278.4375 17.5625 C 278.4375 17.5625 278.359375 17.5625 278.320312 17.5625 L 278.085938 17.5625 C 278.085938 17.5625 278.007812 17.570312 277.96875 17.582031 L 277.851562 17.582031 C 277.851562 17.582031 277.773438 17.609375 277.734375 17.609375 C 277.695312 17.609375 277.65625 17.621094 277.617188 17.628906 C 277.539062 17.648438 277.460938 17.65625 277.382812 17.6875 C 277.304688 17.707031 277.226562 17.734375 277.148438 17.753906 C 277.109375 17.765625 277.070312 17.785156 277.03125 17.792969 C 276.992188 17.804688 276.953125 17.824219 276.921875 17.84375 L 276.816406 17.890625 L 276.707031 17.949219 C 276.707031 17.949219 276.667969 17.96875 276.648438 17.980469 L 276.601562 18.007812 C 276.601562 18.007812 276.53125 18.046875 276.492188 18.066406 C 276.425781 18.105469 276.355469 18.152344 276.289062 18.203125 C 276.21875 18.25 276.160156 18.300781 276.09375 18.347656 C 276.066406 18.375 276.035156 18.394531 276.007812 18.425781 C 275.976562 18.453125 275.949219 18.472656 275.917969 18.503906 L 275.832031 18.589844 C 275.832031 18.589844 275.773438 18.648438 275.753906 18.679688 L 275.714844 18.714844 L 275.675781 18.765625 L 275.597656 18.851562 L 275.527344 18.949219 C 275.527344 18.949219 275.507812 18.980469 275.488281 19 L 275.460938 19.046875 C 275.460938 19.046875 275.410156 19.113281 275.390625 19.144531 L 275.332031 19.242188 C 275.332031 19.242188 275.3125 19.269531 275.304688 19.289062 L 275.273438 19.339844 L 275.214844 19.433594 L 275.167969 19.53125 L 275.136719 19.582031 L 275.117188 19.628906 L 275.078125 19.738281 C 275.078125 19.738281 275.050781 19.804688 275.039062 19.84375 C 275.011719 19.910156 274.992188 19.980469 274.972656 20.046875 C 274.960938 20.085938 274.953125 20.113281 274.941406 20.152344 C 274.941406 20.191406 274.921875 20.222656 274.914062 20.261719 C 274.882812 20.398438 274.863281 20.53125 274.84375 20.667969 C 274.816406 20.941406 274.824219 21.222656 274.875 21.515625 C 274.894531 21.660156 274.933594 21.816406 274.980469 21.960938 Z M 274.980469 22 " fill-opacity="1" fill-rule="nonzero"/><path fill="#000000" d="M 331.285156 26.835938 C 330.484375 27.050781 329.664062 27.300781 328.863281 27.582031 C 328.054688 27.867188 327.253906 28.1875 326.453125 28.515625 C 325.652344 28.847656 324.871094 29.1875 324.101562 29.507812 C 323.722656 29.671875 323.339844 29.828125 322.960938 29.980469 L 322.675781 30.097656 C 322.578125 30.136719 322.492188 30.175781 322.402344 30.207031 C 322.21875 30.285156 322.042969 30.339844 321.855469 30.410156 C 321.808594 30.429688 321.769531 30.4375 321.71875 30.457031 L 321.585938 30.507812 L 321.449219 30.554688 L 321.378906 30.574219 L 321.3125 30.59375 C 321.125 30.652344 320.949219 30.710938 320.765625 30.769531 C 320.675781 30.796875 320.578125 30.828125 320.492188 30.847656 L 320.21875 30.925781 C 320.21875 30.925781 320.128906 30.953125 320.082031 30.964844 L 319.945312 30.992188 L 319.671875 31.058594 C 318.941406 31.226562 318.21875 31.351562 317.503906 31.429688 L 317.367188 31.429688 L 317.230469 31.457031 C 317.144531 31.457031 317.054688 31.476562 316.96875 31.476562 L 316.707031 31.496094 C 316.617188 31.496094 316.53125 31.507812 316.441406 31.515625 C 316.265625 31.515625 316.089844 31.535156 315.925781 31.535156 L 315.671875 31.535156 C 315.582031 31.535156 315.503906 31.535156 315.417969 31.535156 C 315.25 31.535156 315.085938 31.527344 314.917969 31.515625 C 314.832031 31.515625 314.753906 31.507812 314.675781 31.496094 C 314.597656 31.496094 314.507812 31.488281 314.429688 31.476562 L 314.1875 31.449219 L 314.070312 31.449219 L 313.953125 31.417969 L 313.71875 31.390625 C 313.71875 31.390625 313.640625 31.382812 313.601562 31.371094 L 313.484375 31.351562 C 312.859375 31.246094 312.253906 31.109375 311.699219 30.925781 C 311.132812 30.75 310.605469 30.535156 310.109375 30.3125 C 309.125 29.855469 308.273438 29.3125 307.589844 28.769531 C 307.542969 28.738281 307.503906 28.699219 307.464844 28.660156 L 307.335938 28.566406 C 307.335938 28.566406 307.257812 28.496094 307.222656 28.46875 L 306.988281 28.273438 L 306.929688 28.222656 L 306.871094 28.175781 L 306.65625 27.980469 C 306.65625 27.980469 306.585938 27.914062 306.558594 27.882812 L 306.460938 27.789062 C 306.390625 27.71875 306.332031 27.660156 306.273438 27.601562 C 306.15625 27.476562 306.039062 27.359375 305.941406 27.242188 L 305.796875 27.070312 C 305.746094 27.011719 305.707031 26.953125 305.660156 26.902344 L 305.53125 26.75 C 305.492188 26.699219 305.453125 26.652344 305.414062 26.601562 L 305.308594 26.464844 L 305.257812 26.398438 L 305.210938 26.332031 L 305.042969 26.105469 C 304.996094 26.039062 304.957031 25.980469 304.917969 25.921875 L 304.832031 25.785156 L 304.761719 25.679688 L 304.820312 25.796875 L 304.886719 25.941406 C 304.917969 26 304.945312 26.070312 304.984375 26.136719 L 305.113281 26.390625 L 305.191406 26.523438 L 305.277344 26.679688 C 305.308594 26.730469 305.335938 26.789062 305.375 26.84375 L 305.484375 27.019531 C 305.523438 27.078125 305.5625 27.148438 305.601562 27.203125 L 305.726562 27.398438 C 305.816406 27.535156 305.914062 27.671875 306.019531 27.808594 C 306.070312 27.875 306.128906 27.953125 306.1875 28.019531 L 306.273438 28.128906 C 306.273438 28.128906 306.332031 28.207031 306.363281 28.242188 L 306.558594 28.476562 L 306.605469 28.535156 L 306.65625 28.59375 L 306.761719 28.710938 L 306.871094 28.828125 C 306.871094 28.828125 306.949219 28.90625 306.988281 28.941406 L 307.105469 29.058594 C 307.105469 29.058594 307.183594 29.136719 307.222656 29.175781 L 307.472656 29.417969 C 307.5625 29.496094 307.648438 29.585938 307.746094 29.660156 C 307.765625 29.679688 307.796875 29.699219 307.816406 29.71875 L 307.882812 29.777344 L 308.03125 29.894531 C 308.128906 29.980469 308.226562 30.058594 308.332031 30.136719 C 308.742188 30.457031 309.203125 30.769531 309.707031 31.070312 C 310.214844 31.363281 310.761719 31.644531 311.359375 31.886719 C 311.953125 32.128906 312.585938 32.34375 313.261719 32.507812 L 313.386719 32.535156 C 313.386719 32.535156 313.476562 32.554688 313.515625 32.566406 L 313.769531 32.625 L 313.894531 32.652344 L 314.023438 32.671875 L 314.285156 32.722656 C 314.375 32.742188 314.460938 32.75 314.546875 32.761719 C 314.636719 32.769531 314.722656 32.789062 314.820312 32.800781 C 315.007812 32.816406 315.183594 32.835938 315.367188 32.855469 C 315.457031 32.855469 315.554688 32.875 315.652344 32.875 L 315.933594 32.875 C 316.121094 32.90625 316.304688 32.90625 316.5 32.90625 C 316.597656 32.90625 316.6875 32.90625 316.785156 32.90625 L 317.066406 32.90625 C 317.164062 32.90625 317.261719 32.90625 317.359375 32.894531 L 317.652344 32.894531 C 318.433594 32.835938 319.222656 32.75 320.023438 32.59375 L 320.324219 32.535156 L 320.472656 32.507812 C 320.519531 32.496094 320.570312 32.488281 320.617188 32.476562 L 320.921875 32.410156 C 321.019531 32.390625 321.125 32.363281 321.222656 32.332031 C 321.429688 32.285156 321.621094 32.226562 321.828125 32.167969 L 321.984375 32.128906 L 322.128906 32.082031 L 322.277344 32.03125 C 322.324219 32.011719 322.375 32.003906 322.421875 31.984375 C 322.628906 31.914062 322.824219 31.847656 323.027344 31.769531 C 323.125 31.730469 323.234375 31.691406 323.332031 31.664062 L 323.625 31.546875 C 324.011719 31.390625 324.402344 31.234375 324.792969 31.078125 C 325.574219 30.757812 326.355469 30.429688 327.144531 30.109375 C 327.9375 29.789062 328.714844 29.46875 329.476562 29.1875 C 330.25 28.894531 331.011719 28.652344 331.769531 28.417969 C 332.53125 28.1875 333.285156 27.980469 334.023438 27.808594 C 334.765625 27.632812 335.5 27.488281 336.210938 27.371094 C 336.921875 27.253906 337.636719 27.175781 338.316406 27.117188 C 339 27.070312 339.675781 27.039062 340.320312 27.050781 L 340.796875 27.050781 L 340.914062 27.070312 L 341.03125 27.070312 L 341.265625 27.089844 C 341.34375 27.089844 341.421875 27.097656 341.5 27.109375 C 341.578125 27.109375 341.65625 27.109375 341.734375 27.128906 C 341.890625 27.136719 342.035156 27.15625 342.183594 27.164062 C 342.777344 27.222656 343.351562 27.3125 343.890625 27.417969 C 344.4375 27.523438 344.945312 27.652344 345.421875 27.789062 C 345.898438 27.921875 346.359375 28.058594 346.769531 28.214844 C 347.597656 28.515625 348.289062 28.835938 348.828125 29.148438 C 349.363281 29.457031 349.753906 29.757812 350.007812 29.972656 L 350.097656 30.050781 C 350.097656 30.050781 350.144531 30.097656 350.175781 30.117188 C 350.222656 30.15625 350.261719 30.195312 350.289062 30.226562 L 350.378906 30.3125 L 350.300781 30.207031 C 350.300781 30.207031 350.242188 30.128906 350.203125 30.078125 C 350.183594 30.050781 350.164062 30.03125 350.136719 30 L 350.058594 29.914062 C 349.832031 29.660156 349.492188 29.300781 348.984375 28.914062 C 348.476562 28.527344 347.800781 28.097656 346.984375 27.699219 C 346.574219 27.496094 346.125 27.300781 345.644531 27.109375 C 345.167969 26.914062 344.652344 26.730469 344.09375 26.5625 C 343.539062 26.398438 342.953125 26.253906 342.328125 26.136719 C 342.171875 26.105469 342.015625 26.078125 341.859375 26.050781 C 341.78125 26.039062 341.703125 26.019531 341.617188 26.011719 C 341.539062 26 341.449219 25.980469 341.371094 25.972656 L 341.128906 25.941406 L 341 25.921875 L 340.875 25.921875 L 340.621094 25.882812 L 340.367188 25.863281 C 339.683594 25.804688 338.980469 25.777344 338.25 25.785156 C 337.519531 25.785156 336.777344 25.835938 336.015625 25.914062 C 335.253906 25.992188 334.472656 26.105469 333.683594 26.253906 C 332.894531 26.398438 332.101562 26.59375 331.300781 26.808594 Z M 331.285156 26.835938 " fill-opacity="1" fill-rule="nonzero"/><path fill="#000000" d="M 305.882812 17.035156 L 305.84375 17.125 L 305.765625 17.289062 C 305.570312 17.734375 305.414062 18.203125 305.308594 18.660156 L 305.269531 18.832031 L 305.25 18.921875 C 305.25 18.921875 305.238281 18.980469 305.230469 19.007812 C 305.210938 19.125 305.191406 19.242188 305.171875 19.359375 L 305.121094 19.707031 C 305.121094 19.765625 305.113281 19.824219 305.101562 19.882812 L 305.101562 20.058594 L 305.082031 20.144531 L 305.082031 20.988281 C 305.082031 20.988281 305.082031 21.046875 305.082031 21.078125 L 305.113281 21.40625 C 305.113281 21.464844 305.121094 21.515625 305.132812 21.570312 L 305.152344 21.738281 L 305.171875 21.902344 L 305.199219 22.066406 L 305.230469 22.230469 L 305.25 22.320312 C 305.25 22.320312 305.257812 22.378906 305.269531 22.398438 L 305.308594 22.5625 C 305.316406 22.621094 305.335938 22.667969 305.347656 22.726562 C 305.40625 22.941406 305.464844 23.15625 305.53125 23.378906 L 305.589844 23.542969 L 305.621094 23.621094 L 305.648438 23.699219 L 305.707031 23.863281 L 305.777344 24.027344 C 306.128906 24.882812 306.605469 25.730469 307.222656 26.484375 C 307.824219 27.253906 308.566406 27.941406 309.398438 28.515625 C 310.226562 29.089844 311.152344 29.546875 312.140625 29.855469 C 313.113281 30.167969 314.148438 30.324219 315.171875 30.3125 C 315.679688 30.3125 316.199219 30.273438 316.695312 30.1875 C 316.949219 30.148438 317.191406 30.097656 317.4375 30.039062 L 317.523438 30.019531 L 317.613281 30 L 317.789062 29.953125 C 317.847656 29.933594 317.90625 29.925781 317.964844 29.90625 L 318.140625 29.855469 C 319.085938 29.574219 319.984375 29.175781 320.792969 28.691406 C 321.203125 28.449219 321.59375 28.1875 321.964844 27.902344 C 322.335938 27.621094 322.675781 27.320312 323.007812 27.019531 C 323.664062 26.398438 324.21875 25.730469 324.675781 25.03125 C 325.144531 24.339844 325.507812 23.632812 325.789062 22.933594 C 325.808594 22.894531 325.820312 22.863281 325.828125 22.824219 C 325.976562 22.464844 326.101562 22.085938 326.210938 21.707031 C 326.257812 21.53125 326.308594 21.347656 326.347656 21.164062 C 326.386719 20.988281 326.414062 20.804688 326.484375 20.640625 C 326.53125 20.53125 326.582031 20.4375 326.636719 20.328125 L 326.667969 20.28125 L 326.6875 20.25 L 326.707031 20.222656 L 326.773438 20.113281 C 326.773438 20.113281 326.824219 20.046875 326.851562 20.007812 L 326.96875 19.832031 L 326.988281 19.804688 L 327.007812 19.773438 L 327.105469 19.660156 L 327.203125 19.550781 C 327.203125 19.550781 327.273438 19.484375 327.3125 19.445312 C 327.613281 19.152344 327.996094 18.890625 328.433594 18.714844 C 328.648438 18.628906 328.882812 18.550781 329.125 18.511719 C 329.371094 18.464844 329.613281 18.445312 329.859375 18.453125 C 329.917969 18.453125 329.984375 18.453125 330.042969 18.453125 L 330.132812 18.453125 C 330.132812 18.453125 330.191406 18.472656 330.21875 18.472656 L 330.308594 18.472656 L 330.394531 18.503906 C 330.394531 18.503906 330.453125 18.511719 330.484375 18.523438 L 330.570312 18.542969 C 330.570312 18.542969 330.628906 18.5625 330.660156 18.5625 C 330.6875 18.5625 330.71875 18.582031 330.746094 18.589844 C 330.804688 18.609375 330.855469 18.628906 330.914062 18.648438 C 330.972656 18.667969 331.019531 18.699219 331.078125 18.714844 C 331.109375 18.726562 331.128906 18.746094 331.15625 18.753906 C 331.1875 18.765625 331.207031 18.785156 331.234375 18.792969 L 331.3125 18.832031 L 331.378906 18.882812 L 331.417969 18.902344 L 331.457031 18.929688 C 331.457031 18.929688 331.507812 18.960938 331.527344 18.980469 C 331.574219 19.019531 331.613281 19.046875 331.664062 19.085938 C 331.703125 19.125 331.75 19.164062 331.789062 19.203125 C 331.808594 19.222656 331.828125 19.242188 331.847656 19.261719 C 331.867188 19.28125 331.886719 19.300781 331.90625 19.320312 L 331.964844 19.378906 L 332.015625 19.445312 L 332.042969 19.472656 L 332.0625 19.503906 L 332.113281 19.570312 L 332.160156 19.640625 L 332.179688 19.667969 L 332.199219 19.707031 L 332.238281 19.773438 L 332.277344 19.84375 L 332.316406 19.921875 L 332.347656 19.988281 L 332.375 20.058594 L 332.394531 20.097656 L 332.394531 20.132812 L 332.433594 20.203125 C 332.433594 20.203125 332.453125 20.25 332.453125 20.269531 C 332.472656 20.320312 332.484375 20.367188 332.492188 20.417969 C 332.492188 20.4375 332.503906 20.464844 332.511719 20.484375 C 332.511719 20.503906 332.523438 20.53125 332.53125 20.550781 C 332.550781 20.648438 332.5625 20.738281 332.570312 20.824219 C 332.589844 21.007812 332.589844 21.191406 332.570312 21.398438 C 332.5625 21.496094 332.542969 21.582031 332.523438 21.679688 C 332.492188 21.777344 332.464844 21.863281 332.425781 21.960938 C 332.386719 22.046875 332.335938 22.144531 332.277344 22.222656 C 332.21875 22.308594 332.160156 22.386719 332.09375 22.476562 C 331.957031 22.628906 331.78125 22.765625 331.585938 22.875 C 331.390625 22.980469 331.175781 23.058594 330.960938 23.097656 C 330.855469 23.117188 330.738281 23.125 330.621094 23.125 C 330.609375 23.125 330.589844 23.125 330.582031 23.125 L 330.542969 23.125 C 330.542969 23.125 330.484375 23.125 330.453125 23.125 C 330.425781 23.125 330.394531 23.125 330.375 23.125 L 330.296875 23.125 C 330.082031 23.078125 329.878906 22.988281 329.691406 22.863281 C 329.507812 22.738281 329.359375 22.582031 329.242188 22.398438 C 329.125 22.214844 329.046875 22.007812 329.007812 21.804688 C 328.96875 21.601562 328.96875 21.386719 329.007812 21.203125 C 329.046875 21.019531 329.125 20.84375 329.222656 20.699219 C 329.320312 20.550781 329.449219 20.4375 329.566406 20.339844 C 329.691406 20.25 329.820312 20.183594 329.9375 20.144531 C 330.054688 20.105469 330.160156 20.078125 330.25 20.066406 C 330.296875 20.066406 330.335938 20.066406 330.367188 20.058594 C 330.40625 20.058594 330.433594 20.058594 330.453125 20.058594 C 330.453125 20.058594 330.40625 20.039062 330.367188 20.027344 C 330.328125 20.027344 330.289062 20.027344 330.238281 20.019531 C 330.152344 20.019531 330.035156 20.019531 329.898438 20.039062 C 329.761719 20.058594 329.613281 20.105469 329.457031 20.183594 C 329.300781 20.261719 329.136719 20.367188 329 20.523438 C 328.851562 20.679688 328.726562 20.871094 328.640625 21.097656 C 328.628906 21.125 328.621094 21.15625 328.609375 21.183594 C 328.609375 21.210938 328.589844 21.242188 328.582031 21.269531 C 328.582031 21.300781 328.5625 21.328125 328.5625 21.367188 C 328.5625 21.398438 328.550781 21.425781 328.542969 21.464844 C 328.523438 21.589844 328.511719 21.71875 328.523438 21.855469 C 328.523438 22.125 328.589844 22.40625 328.707031 22.667969 C 328.824219 22.941406 329.007812 23.195312 329.242188 23.40625 C 329.476562 23.621094 329.761719 23.785156 330.082031 23.894531 C 330.101562 23.894531 330.121094 23.902344 330.140625 23.914062 L 330.199219 23.933594 C 330.199219 23.933594 330.277344 23.953125 330.328125 23.960938 C 330.367188 23.960938 330.40625 23.980469 330.445312 23.980469 L 330.503906 23.980469 C 330.503906 23.980469 330.542969 24 330.5625 24 C 330.726562 24.019531 330.894531 24.027344 331.058594 24.019531 C 331.390625 24 331.722656 23.921875 332.023438 23.796875 C 332.328125 23.660156 332.609375 23.476562 332.855469 23.253906 C 332.972656 23.136719 333.089844 23.019531 333.1875 22.882812 C 333.285156 22.757812 333.371094 22.609375 333.449219 22.476562 C 333.527344 22.328125 333.585938 22.183594 333.636719 22.039062 C 333.683594 21.890625 333.722656 21.738281 333.742188 21.589844 C 333.789062 21.300781 333.789062 21.019531 333.769531 20.746094 C 333.761719 20.609375 333.730469 20.472656 333.703125 20.339844 C 333.703125 20.300781 333.683594 20.269531 333.671875 20.230469 C 333.671875 20.191406 333.652344 20.164062 333.644531 20.125 C 333.625 20.058594 333.605469 19.988281 333.578125 19.921875 C 333.566406 19.882812 333.546875 19.851562 333.539062 19.8125 L 333.5 19.707031 L 333.480469 19.660156 L 333.449219 19.609375 L 333.402344 19.511719 L 333.34375 19.414062 L 333.3125 19.367188 C 333.3125 19.367188 333.292969 19.339844 333.285156 19.320312 L 333.226562 19.222656 C 333.226562 19.222656 333.1875 19.152344 333.15625 19.125 L 333.128906 19.074219 C 333.128906 19.074219 333.109375 19.046875 333.089844 19.027344 L 333.019531 18.929688 L 332.941406 18.84375 L 332.902344 18.792969 L 332.863281 18.753906 C 332.863281 18.753906 332.816406 18.699219 332.785156 18.667969 L 332.699219 18.582031 C 332.699219 18.582031 332.640625 18.523438 332.609375 18.503906 C 332.582031 18.472656 332.550781 18.453125 332.523438 18.425781 C 332.464844 18.375 332.394531 18.328125 332.328125 18.28125 C 332.257812 18.230469 332.191406 18.191406 332.121094 18.144531 C 332.082031 18.125 332.054688 18.105469 332.015625 18.085938 L 331.964844 18.054688 C 331.964844 18.054688 331.925781 18.035156 331.90625 18.027344 L 331.800781 17.96875 L 331.691406 17.921875 C 331.691406 17.921875 331.613281 17.890625 331.585938 17.871094 C 331.546875 17.863281 331.507812 17.84375 331.46875 17.832031 C 331.390625 17.804688 331.3125 17.785156 331.234375 17.765625 C 331.15625 17.746094 331.078125 17.726562 331 17.707031 C 330.960938 17.707031 330.921875 17.695312 330.882812 17.6875 C 330.84375 17.6875 330.804688 17.675781 330.765625 17.667969 L 330.648438 17.667969 C 330.648438 17.667969 330.570312 17.648438 330.53125 17.648438 L 330.296875 17.648438 C 330.296875 17.648438 330.21875 17.648438 330.179688 17.648438 L 330.0625 17.648438 C 329.984375 17.648438 329.90625 17.667969 329.839844 17.667969 C 329.535156 17.695312 329.242188 17.765625 328.960938 17.863281 C 328.6875 17.960938 328.425781 18.074219 328.191406 18.222656 C 327.957031 18.367188 327.742188 18.523438 327.546875 18.699219 C 327.359375 18.871094 327.195312 19.046875 327.058594 19.230469 C 327.027344 19.28125 326.988281 19.320312 326.960938 19.367188 L 326.871094 19.503906 C 326.871094 19.503906 326.8125 19.589844 326.792969 19.640625 L 326.773438 19.667969 L 326.753906 19.707031 L 326.714844 19.773438 L 326.675781 19.84375 L 326.648438 19.910156 C 326.648438 19.910156 326.609375 20 326.589844 20.039062 L 326.589844 19.980469 C 326.617188 19.679688 326.648438 19.386719 326.65625 19.113281 C 326.6875 18.5625 326.65625 18.066406 326.628906 17.628906 C 326.589844 17.191406 326.542969 16.824219 326.484375 16.53125 C 326.484375 16.492188 326.472656 16.453125 326.464844 16.425781 L 326.445312 16.316406 C 326.433594 16.25 326.414062 16.191406 326.40625 16.132812 L 326.367188 15.976562 C 326.367188 15.976562 326.347656 15.890625 326.335938 15.851562 L 326.277344 15.617188 L 326.308594 15.863281 C 326.308594 15.863281 326.316406 15.949219 326.328125 15.996094 L 326.347656 16.152344 C 326.347656 16.210938 326.355469 16.269531 326.367188 16.335938 L 326.367188 16.445312 C 326.367188 16.445312 326.386719 16.511719 326.386719 16.550781 C 326.40625 16.851562 326.425781 17.222656 326.414062 17.648438 C 326.414062 18.074219 326.367188 18.5625 326.289062 19.09375 C 326.25 19.359375 326.199219 19.640625 326.132812 19.921875 C 326.0625 20.203125 325.984375 20.503906 325.898438 20.796875 C 325.710938 21.398438 325.457031 22.019531 325.125 22.640625 C 324.792969 23.261719 324.394531 23.894531 323.917969 24.484375 C 323.4375 25.078125 322.871094 25.652344 322.238281 26.15625 C 321.925781 26.410156 321.585938 26.652344 321.242188 26.875 C 320.890625 27.097656 320.53125 27.300781 320.148438 27.488281 C 319.390625 27.855469 318.578125 28.136719 317.75 28.320312 L 317.59375 28.351562 C 317.542969 28.359375 317.484375 28.371094 317.4375 28.378906 L 317.28125 28.410156 L 317.203125 28.410156 L 317.125 28.4375 C 316.921875 28.476562 316.707031 28.496094 316.5 28.515625 C 316.082031 28.554688 315.660156 28.554688 315.242188 28.527344 C 314.402344 28.46875 313.582031 28.292969 312.800781 27.992188 C 312.03125 27.699219 311.308594 27.292969 310.675781 26.808594 C 310.039062 26.320312 309.484375 25.75 309.035156 25.136719 C 308.585938 24.523438 308.234375 23.863281 307.972656 23.195312 L 307.921875 23.066406 L 307.875 22.941406 L 307.835938 22.824219 L 307.796875 22.699219 C 307.746094 22.535156 307.699219 22.359375 307.660156 22.195312 C 307.648438 22.15625 307.640625 22.105469 307.628906 22.066406 L 307.601562 21.941406 C 307.601562 21.941406 307.589844 21.902344 307.589844 21.882812 L 307.589844 21.824219 L 307.5625 21.707031 L 307.542969 21.589844 L 307.523438 21.476562 L 307.503906 21.359375 C 307.503906 21.359375 307.492188 21.28125 307.492188 21.242188 L 307.472656 21 C 307.472656 21 307.472656 20.960938 307.472656 20.941406 L 307.472656 20.144531 C 307.472656 20.144531 307.484375 20.058594 307.492188 20.019531 L 307.523438 19.765625 C 307.53125 19.679688 307.550781 19.601562 307.5625 19.511719 C 307.5625 19.492188 307.5625 19.472656 307.570312 19.445312 L 307.570312 19.386719 L 307.609375 19.261719 C 307.6875 18.921875 307.785156 18.589844 307.914062 18.25 L 307.960938 18.125 L 307.992188 18.066406 C 307.992188 18.066406 308.011719 18.027344 308.019531 18.007812 L 308.136719 17.765625 L 308.265625 17.523438 L 308.285156 17.492188 L 308.304688 17.464844 L 308.34375 17.40625 L 308.410156 17.289062 C 308.800781 16.65625 309.300781 16.085938 309.914062 15.597656 C 310.519531 15.125 311.230469 14.746094 311.992188 14.511719 C 312.042969 14.492188 312.089844 14.480469 312.140625 14.472656 L 312.285156 14.433594 L 312.351562 14.414062 C 312.351562 14.414062 312.402344 14.40625 312.421875 14.394531 L 312.566406 14.367188 C 312.566406 14.367188 312.664062 14.347656 312.714844 14.335938 L 312.859375 14.308594 L 313.007812 14.289062 L 313.113281 14.289062 L 313.152344 14.269531 C 313.542969 14.238281 313.933594 14.25 314.324219 14.308594 C 314.714844 14.367188 315.09375 14.472656 315.464844 14.617188 L 315.503906 14.617188 L 315.535156 14.648438 L 315.601562 14.675781 C 315.601562 14.675781 315.691406 14.714844 315.738281 14.734375 L 315.875 14.804688 L 315.945312 14.832031 C 315.945312 14.832031 315.984375 14.851562 316.011719 14.871094 L 316.140625 14.9375 C 316.140625 14.9375 316.179688 14.96875 316.207031 14.976562 L 316.324219 15.054688 C 316.324219 15.054688 316.363281 15.085938 316.382812 15.09375 L 316.511719 15.179688 C 316.832031 15.40625 317.132812 15.675781 317.398438 15.976562 C 317.660156 16.269531 317.894531 16.597656 318.082031 16.949219 C 318.265625 17.296875 318.414062 17.65625 318.519531 18.035156 L 318.539062 18.105469 C 318.539062 18.105469 318.550781 18.152344 318.558594 18.171875 L 318.589844 18.308594 C 318.589844 18.308594 318.609375 18.40625 318.617188 18.445312 L 318.617188 18.511719 C 318.617188 18.511719 318.636719 18.5625 318.636719 18.582031 L 318.65625 18.714844 L 318.65625 18.851562 L 318.675781 18.921875 L 318.675781 18.988281 C 318.675781 18.988281 318.675781 19.085938 318.675781 19.125 C 318.675781 19.871094 318.472656 20.601562 318.109375 21.222656 C 318.023438 21.378906 317.925781 21.523438 317.816406 21.667969 L 317.777344 21.71875 L 317.757812 21.746094 L 317.738281 21.777344 L 317.652344 21.875 C 317.652344 21.875 317.59375 21.941406 317.5625 21.96875 C 317.535156 22 317.503906 22.039062 317.476562 22.066406 C 317.230469 22.320312 316.960938 22.535156 316.675781 22.707031 C 316.394531 22.882812 316.089844 23.027344 315.789062 23.136719 C 315.484375 23.242188 315.183594 23.320312 314.878906 23.339844 C 314.578125 23.367188 314.285156 23.359375 314.011719 23.308594 C 313.738281 23.273438 313.476562 23.195312 313.230469 23.097656 C 312.988281 23 312.773438 22.882812 312.566406 22.746094 C 312.371094 22.621094 312.199219 22.476562 312.042969 22.328125 C 311.886719 22.183594 311.757812 22.039062 311.652344 21.890625 C 311.542969 21.746094 311.457031 21.609375 311.378906 21.476562 L 311.328125 21.378906 L 311.300781 21.328125 C 311.300781 21.328125 311.289062 21.300781 311.28125 21.28125 L 311.242188 21.191406 L 311.222656 21.15625 L 311.203125 21.117188 C 311.183594 21.066406 311.164062 21.007812 311.144531 20.96875 L 311.09375 20.84375 C 311.09375 20.84375 311.085938 20.804688 311.074219 20.796875 L 311.074219 20.746094 L 311.035156 20.679688 L 311.015625 20.621094 L 311.015625 20.679688 L 311.035156 20.757812 L 311.035156 20.804688 C 311.035156 20.804688 311.054688 20.84375 311.054688 20.863281 L 311.085938 20.988281 C 311.085938 20.988281 311.113281 21.085938 311.132812 21.144531 L 311.132812 21.183594 L 311.164062 21.230469 L 311.191406 21.328125 C 311.191406 21.328125 311.203125 21.359375 311.210938 21.378906 L 311.230469 21.425781 L 311.269531 21.53125 C 311.328125 21.667969 311.40625 21.824219 311.503906 21.988281 C 311.601562 22.15625 311.71875 22.320312 311.867188 22.496094 C 312.011719 22.660156 312.179688 22.835938 312.371094 23 C 312.566406 23.164062 312.792969 23.308594 313.046875 23.445312 C 313.300781 23.582031 313.582031 23.6875 313.894531 23.765625 C 314.199219 23.84375 314.539062 23.894531 314.878906 23.894531 C 314.898438 23.894531 314.917969 23.894531 314.949219 23.894531 L 315.144531 23.894531 L 315.28125 23.875 L 315.347656 23.875 C 315.347656 23.875 315.398438 23.863281 315.417969 23.863281 L 315.554688 23.84375 C 315.554688 23.84375 315.640625 23.824219 315.691406 23.816406 L 315.828125 23.785156 L 315.964844 23.757812 C 316.324219 23.667969 316.6875 23.542969 317.039062 23.367188 C 317.386719 23.195312 317.730469 22.96875 318.050781 22.699219 C 318.089844 22.667969 318.128906 22.628906 318.167969 22.589844 C 318.207031 22.554688 318.246094 22.523438 318.285156 22.484375 L 318.402344 22.367188 L 318.433594 22.339844 L 318.460938 22.308594 L 318.519531 22.25 C 318.667969 22.097656 318.804688 21.921875 318.929688 21.746094 C 319.183594 21.386719 319.398438 20.988281 319.554688 20.550781 C 319.71875 20.125 319.816406 19.660156 319.867188 19.183594 C 319.867188 19.125 319.867188 19.066406 319.875 19 L 319.875 18.453125 C 319.875 18.453125 319.875 18.394531 319.875 18.367188 L 319.875 18.28125 C 319.867188 18.222656 319.855469 18.152344 319.847656 18.09375 L 319.816406 17.910156 C 319.816406 17.910156 319.816406 17.851562 319.808594 17.824219 L 319.789062 17.734375 C 319.699219 17.261719 319.554688 16.785156 319.351562 16.328125 C 319.15625 15.871094 318.890625 15.433594 318.578125 15.015625 C 318.265625 14.609375 317.914062 14.230469 317.503906 13.898438 L 317.347656 13.773438 C 317.347656 13.773438 317.300781 13.734375 317.269531 13.714844 L 317.195312 13.65625 L 317.117188 13.597656 C 317.117188 13.597656 317.066406 13.558594 317.039062 13.539062 L 316.871094 13.433594 C 316.871094 13.433594 316.8125 13.394531 316.792969 13.375 L 316.707031 13.328125 L 316.539062 13.230469 C 316.480469 13.199219 316.421875 13.171875 316.363281 13.132812 L 316.277344 13.082031 C 316.277344 13.082031 316.246094 13.0625 316.226562 13.0625 L 316.179688 13.046875 C 315.699219 12.8125 315.191406 12.628906 314.667969 12.511719 C 314.140625 12.394531 313.601562 12.347656 313.054688 12.355469 L 312.851562 12.355469 L 312.644531 12.375 L 312.441406 12.394531 C 312.375 12.394531 312.304688 12.402344 312.238281 12.414062 L 312.03125 12.441406 C 312.03125 12.441406 311.964844 12.453125 311.933594 12.460938 L 311.640625 12.519531 C 311.574219 12.53125 311.515625 12.550781 311.445312 12.558594 C 310.421875 12.800781 309.457031 13.25 308.605469 13.851562 C 307.757812 14.453125 307.035156 15.199219 306.480469 16.035156 L 306.382812 16.191406 L 306.332031 16.269531 L 306.304688 16.308594 L 306.285156 16.347656 C 306.226562 16.453125 306.15625 16.5625 306.097656 16.667969 L 305.933594 16.996094 C 305.933594 16.996094 305.902344 17.054688 305.894531 17.085938 Z M 305.882812 17.035156 " fill-opacity="1" fill-rule="nonzero"/><path fill="#000000" d="M 281.988281 31.671875 C 281.800781 31.59375 281.617188 31.515625 281.429688 31.4375 L 93.371094 31.4375 L 93.371094 32.0625 L 282.933594 32.0625 C 282.621094 31.933594 282.300781 31.796875 281.988281 31.671875 Z M 281.988281 31.671875 " fill-opacity="1" fill-rule="nonzero"/><path fill="#000000" d="M 300.710938 31.4375 C 300.410156 31.664062 300.097656 31.867188 299.777344 32.0625 L 308.851562 32.0625 C 308.527344 31.867188 308.214844 31.652344 307.914062 31.4375 Z M 300.710938 31.4375 " fill-opacity="1" fill-rule="nonzero"/><path fill="#000000" d="M 326.636719 31.671875 C 326.328125 31.796875 326.015625 31.933594 325.703125 32.0625 L 515.265625 32.0625 L 515.265625 31.4375 L 327.203125 31.4375 C 327.019531 31.515625 326.832031 31.59375 326.636719 31.671875 Z M 326.636719 31.671875 " fill-opacity="1" fill-rule="nonzero"/></svg>